<svg width="25" height="25" viewBox="411 199 858 859" xml:space="preserve" xmlns="http://www.w3.org/2000/svg"><path d="M1168.1 1056.6H511.7c-55.12 0-99.8-44.68-99.8-99.8V300.4c0-55.12 44.68-99.8 99.8-99.8h656.39c55.12 0 99.8 44.68 99.8 99.8v656.39c.01 55.13-44.67 99.81-99.79 99.81z" style="stroke:#fff;stroke-miterlimit:10"/><path d="M491.03 374.75 721.1 682.38 489.58 932.49h52.11l202.7-218.98 163.77 218.98h177.32L842.46 607.56l215.5-232.81h-52.11L819.18 576.42 668.35 374.75H491.03zm76.63 38.39h81.46l359.72 480.97h-81.46L567.66 413.14z" style="fill:#fff" transform="translate(52.39 -25.059)"/></svg>